<svg xmlns="http://www.w3.org/2000/svg" width="984" height="1024" viewBox="0 0 984 1024"><rect width="100%" height="100%" fill="#DDDDDD"/><path fill="#999999" d="M212.9 495.235q0 7.02 3.63 10.7 3.62 3.69 10.29 3.69 3.48 0 6.21-1.1 2.72-1.11 4.58-3.02 1.86-1.91 2.81-4.52.96-2.61.96-5.63 0-3.42-1.04-6.12-1.05-2.7-2.96-4.55-1.92-1.86-4.55-2.84-2.64-.99-5.78-.99-3.24 0-5.85 1.07-2.61 1.08-4.47 2.99-1.86 1.91-2.84 4.55-.99 2.64-.99 5.77Zm-7.02 58.7 26.05-32.54q.98-1.22 1.85-2.38.87-1.16 1.68-2.32-2.9 1.86-6.38 2.82-3.48.95-7.3.95-4.35 0-8.53-1.5-4.18-1.51-7.42-4.56-3.25-3.04-5.25-7.54-2-4.49-2-10.52 0-5.63 2.08-10.56 2.09-4.93 5.86-8.64 3.77-3.71 9.05-5.86 5.28-2.15 11.66-2.15 6.44 0 11.57 2.03t8.76 5.69q3.62 3.65 5.57 8.76 1.94 5.1 1.94 11.19 0 3.89-.67 7.37t-1.88 6.69q-1.22 3.22-2.96 6.3-1.74 3.07-3.89 6.09l-19.2 27.37q-.98 1.4-2.95 2.35-1.98.96-4.47.96h-13.17Zm88.8-10.27q3.54 0 6.21-1.01 2.67-1.02 4.49-2.81 1.83-1.8 2.76-4.3.93-2.49.93-5.39 0-6.9-3.83-10.44-3.83-3.54-10.56-3.54t-10.55 3.54q-3.83 3.54-3.83 10.44 0 2.9.93 5.39.92 2.5 2.75 4.3 1.83 1.79 4.5 2.81 2.66 1.01 6.2 1.01Zm0-63.74q-3.19 0-5.51.99-2.32.98-3.85 2.64-1.54 1.65-2.27 3.8-.72 2.14-.72 4.52 0 2.49.61 4.84.61 2.35 2.06 4.18 1.45 1.83 3.82 2.93 2.38 1.1 5.86 1.1 3.48 0 5.86-1.1 2.38-1.1 3.83-2.93 1.45-1.83 2.06-4.18.61-2.35.61-4.84 0-2.38-.76-4.52-.75-2.15-2.26-3.8-1.51-1.66-3.83-2.64-2.32-.99-5.51-.99Zm14.15 30.28q7.66 2.49 11.31 7.62 3.66 5.14 3.66 12.56 0 5.57-2.12 10.09-2.12 4.53-5.94 7.72-3.83 3.19-9.2 4.93-5.36 1.74-11.86 1.74-6.49 0-11.86-1.74-5.36-1.74-9.19-4.93-3.83-3.19-5.95-7.72-2.11-4.52-2.11-10.09 0-7.42 3.65-12.56 3.65-5.13 11.31-7.62-6.09-2.55-9.13-7.25-3.05-4.7-3.05-11.31 0-4.76 1.94-8.88 1.95-4.11 5.43-7.16 3.48-3.04 8.32-4.76 4.84-1.71 10.64-1.71 5.8 0 10.65 1.71 4.84 1.72 8.32 4.76 3.48 3.05 5.42 7.16 1.94 4.12 1.94 8.88 0 6.61-3.04 11.31-3.05 4.7-9.14 7.25Zm35.27 12.12h25.52v-27.43q0-3.89.52-8.59l-26.04 36.02Zm37.99 0h10.55v8.29q0 1.16-.75 2-.75.85-2.15.85h-7.65v20.47h-12.47v-20.47h-35.38q-1.45 0-2.55-.9-1.11-.9-1.4-2.24l-1.5-7.25 39.73-53.07h13.57v52.32Zm102.72 12.41-7.6 7.48-19.66-19.66-19.84 19.78-7.6-7.48 19.84-19.9-18.91-18.9 7.54-7.54 18.91 18.9 18.79-18.79 7.66 7.54-18.85 18.85 19.72 19.72Zm79.4 8.47h15.08v10.73h-46.4v-10.73h16.99v-48.89q0-2.9.18-5.98l-12.07 10.09q-1.04.82-2.06 1.02-1.01.2-1.91.03-.9-.18-1.6-.61-.69-.44-1.04-.96l-4.52-6.2 25.57-21.75h11.78v73.25Zm86.71-31.2q0 10.96-2.35 19.05t-6.5 13.37q-4.14 5.28-9.8 7.86-5.65 2.58-12.21 2.58-6.55 0-12.15-2.58-5.6-2.58-9.71-7.86-4.12-5.28-6.44-13.37-2.32-8.09-2.32-19.05 0-11.02 2.32-19.09 2.32-8.06 6.44-13.34 4.11-5.27 9.71-7.86 5.6-2.58 12.15-2.58 6.56 0 12.21 2.58 5.66 2.59 9.8 7.86 4.15 5.28 6.5 13.34 2.35 8.07 2.35 19.09Zm-14.79 0q0-9.11-1.34-15.08-1.33-5.98-3.56-9.52-2.24-3.53-5.14-4.95-2.9-1.43-6.03-1.43-3.07 0-5.94 1.43-2.87 1.42-5.08 4.95-2.2 3.54-3.51 9.52-1.3 5.97-1.3 15.08 0 9.1 1.3 15.08 1.31 5.97 3.51 9.51 2.21 3.54 5.08 4.96t5.94 1.42q3.13 0 6.03-1.42 2.9-1.42 5.14-4.96 2.23-3.54 3.56-9.51 1.34-5.98 1.34-15.08Zm53.07 28.59h21.52q2.32 0 3.68 1.3 1.36 1.31 1.36 3.46v8.58h-57.53v-4.76q0-1.45.61-3.04.6-1.6 1.94-2.87l25.46-25.52q3.19-3.25 5.71-6.21 2.53-2.96 4.21-5.86 1.68-2.9 2.58-5.88.9-2.99.9-6.3 0-3.01-.87-5.3t-2.47-3.86q-1.59-1.57-3.82-2.35-2.24-.78-5.02-.78-2.55 0-4.73.72-2.17.73-3.86 2.03-1.68 1.31-2.84 3.05-1.16 1.74-1.74 3.83-.98 2.66-2.55 3.53-1.57.87-4.52.41l-7.54-1.33q.87-6.04 3.36-10.59 2.49-4.55 6.24-7.6 3.74-3.04 8.58-4.58t10.41-1.54q5.8 0 10.61 1.71 4.82 1.72 8.24 4.85t5.34 7.54q1.91 4.41 1.91 9.8 0 4.64-1.36 8.58-1.37 3.95-3.66 7.54-2.29 3.6-5.36 6.96-3.08 3.37-6.44 6.85l-18.91 19.31q2.73-.81 5.43-1.25 2.69-.43 5.13-.43Zm47.67-18.27h25.52v-27.43q0-3.89.53-8.59l-26.05 36.02Zm37.99 0h10.56v8.29q0 1.16-.75 2-.76.85-2.15.85h-7.66v20.47h-12.47v-20.47h-35.38q-1.45 0-2.55-.9-1.1-.9-1.39-2.24l-1.51-7.25 39.73-53.07h13.57v52.32Z"/></svg>