<svg xmlns="http://www.w3.org/2000/svg" width="1024" height="905" viewBox="0 0 1024 905"><rect width="100%" height="100%" fill="#DDDDDD"/><path fill="#999999" d="M250.34 484.78h15.6v11.1h-48v-11.1h17.58V434.2q0-3 .18-6.18l-12.48 10.44q-1.08.84-2.13 1.05-1.05.21-1.98.03-.93-.18-1.65-.63-.72-.45-1.08-.99l-4.68-6.42 26.46-22.5h12.18v75.78Zm89.7-32.28q0 11.34-2.43 19.71-2.43 8.37-6.72 13.83-4.29 5.46-10.14 8.13-5.85 2.67-12.63 2.67-6.78 0-12.57-2.67t-10.05-8.13q-4.26-5.46-6.66-13.83-2.4-8.37-2.4-19.71 0-11.4 2.4-19.74 2.4-8.34 6.66-13.8 4.26-5.46 10.05-8.13 5.79-2.67 12.57-2.67t12.63 2.67q5.85 2.67 10.14 8.13 4.29 5.46 6.72 13.8 2.43 8.34 2.43 19.74Zm-15.3 0q0-9.42-1.38-15.6t-3.69-9.84q-2.31-3.66-5.31-5.13-3-1.47-6.24-1.47-3.18 0-6.15 1.47t-5.25 5.13q-2.28 3.66-3.63 9.84t-1.35 15.6q0 9.42 1.35 15.6t3.63 9.84q2.28 3.66 5.25 5.13 2.97 1.47 6.15 1.47 3.24 0 6.24-1.47t5.31-5.13q2.31-3.66 3.69-9.84t1.38-15.6Zm54.9 29.58h22.26q2.4 0 3.81 1.35 1.41 1.35 1.41 3.57v8.88H347.6v-4.92q0-1.5.63-3.15t2.01-2.97l26.34-26.4q3.3-3.36 5.91-6.42 2.61-3.06 4.35-6.06 1.74-3 2.67-6.09.93-3.09.93-6.51 0-3.12-.9-5.49t-2.55-3.99q-1.65-1.62-3.96-2.43t-5.19-.81q-2.64 0-4.89.75-2.25.75-3.99 2.1-1.74 1.35-2.94 3.15-1.2 1.8-1.8 3.96-1.02 2.76-2.64 3.66-1.62.9-4.68.42l-7.8-1.38q.9-6.24 3.48-10.95 2.58-4.71 6.45-7.86 3.87-3.15 8.88-4.74 5.01-1.59 10.77-1.59 6 0 10.98 1.77t8.52 5.01q3.54 3.24 5.52 7.8 1.98 4.56 1.98 10.14 0 4.8-1.41 8.88-1.41 4.08-3.78 7.8-2.37 3.72-5.55 7.2-3.18 3.48-6.66 7.08l-19.56 19.98q2.82-.84 5.61-1.29 2.79-.45 5.31-.45Zm49.32-18.9h26.4V434.8q0-4.02.54-8.88l-26.94 37.26Zm39.3 0h10.92v8.58q0 1.2-.78 2.07-.78.87-2.22.87h-7.92v21.18h-12.9V474.7h-36.6q-1.5 0-2.64-.93-1.14-.93-1.44-2.31l-1.56-7.5 41.1-54.9h14.04v54.12Zm106.26 12.84-7.86 7.74-20.34-20.34-20.52 20.46-7.86-7.74 20.52-20.58L518.9 436l7.8-7.8 19.56 19.56 19.44-19.44 7.92 7.8-19.5 19.5 20.4 20.4Zm55.44-40.86q0 7.26 3.75 11.07 3.75 3.81 10.65 3.81 3.6 0 6.42-1.14t4.74-3.12q1.92-1.98 2.91-4.68.99-2.7.99-5.82 0-3.54-1.08-6.33t-3.06-4.71q-1.98-1.92-4.71-2.94t-5.97-1.02q-3.36 0-6.06 1.11-2.7 1.11-4.62 3.09-1.92 1.98-2.94 4.71t-1.02 5.97Zm-7.26 60.72 26.94-33.66q1.02-1.26 1.92-2.46.9-1.2 1.74-2.4-3 1.92-6.6 2.91-3.6.99-7.56.99-4.5 0-8.82-1.56t-7.68-4.71q-3.36-3.15-5.43-7.8t-2.07-10.89q0-5.82 2.16-10.92t6.06-8.94q3.9-3.84 9.36-6.06 5.46-2.22 12.06-2.22 6.66 0 11.97 2.1 5.31 2.1 9.06 5.88 3.75 3.78 5.76 9.06 2.01 5.28 2.01 11.58 0 4.02-.69 7.62-.69 3.6-1.95 6.93-1.26 3.33-3.06 6.51-1.8 3.18-4.02 6.3L644 492.46q-1.02 1.44-3.06 2.43-2.04.99-4.62.99H622.7Zm123.66-43.38q0 11.34-2.43 19.71-2.43 8.37-6.72 13.83-4.29 5.46-10.14 8.13-5.85 2.67-12.63 2.67-6.78 0-12.57-2.67t-10.05-8.13q-4.26-5.46-6.66-13.83-2.4-8.37-2.4-19.71 0-11.4 2.4-19.74 2.4-8.34 6.66-13.8 4.26-5.46 10.05-8.13 5.79-2.67 12.57-2.67t12.63 2.67q5.85 2.67 10.14 8.13 4.29 5.46 6.72 13.8 2.43 8.34 2.43 19.74Zm-15.3 0q0-9.42-1.38-15.6t-3.69-9.84q-2.31-3.66-5.31-5.13-3-1.47-6.24-1.47-3.18 0-6.15 1.47t-5.25 5.13q-2.28 3.66-3.63 9.84t-1.35 15.6q0 9.42 1.35 15.6t3.63 9.84q2.28 3.66 5.25 5.13 2.97 1.47 6.15 1.47 3.24 0 6.24-1.47t5.31-5.13q2.31-3.66 3.69-9.84t1.38-15.6Zm45.72-29.94-3.06 18.06q2.88-.6 5.52-.87 2.64-.27 5.1-.27 6.84 0 12.06 2.04 5.22 2.04 8.76 5.64 3.54 3.6 5.34 8.43 1.8 4.83 1.8 10.41 0 6.9-2.43 12.6-2.43 5.7-6.75 9.75t-10.23 6.27q-5.91 2.22-12.87 2.22-4.08 0-7.74-.84t-6.87-2.25q-3.21-1.41-5.94-3.24-2.73-1.83-4.89-3.87l4.56-6.3q1.44-2.04 3.78-2.04 1.5 0 3.06.96t3.57 2.1q2.01 1.14 4.74 2.1 2.73.96 6.57.96 4.08 0 7.2-1.32t5.19-3.69q2.07-2.37 3.12-5.64 1.05-3.27 1.05-7.11 0-7.08-4.11-11.07t-12.15-3.99q-6.18 0-12.66 2.28l-9.24-2.64 7.2-42.12h42.84v6.3q0 3.18-1.98 5.16t-6.72 1.98h-23.82Z"/></svg>